<?xml version="1.0" standalone="no"?>
<!DOCTYPE svg PUBLIC "-//W3C//DTD SVG 20010904//EN"
 "http://www.w3.org/TR/2001/REC-SVG-20010904/DTD/svg10.dtd">
<svg version="1.0" xmlns="http://www.w3.org/2000/svg"
 width="1243.000000pt" height="1114.000000pt" viewBox="0 0 1243.000000 1114.000000"
 preserveAspectRatio="xMidYMid meet">

<g transform="translate(0.000000,1114.000000) scale(0.100000,-0.100000)"
fill="#000000" stroke="none">
<path d="M5960 11134 c-288 -20 -375 -27 -505 -44 -975 -129 -1871 -478 -2670
-1043 -429 -304 -867 -719 -1200 -1137 -1045 -1312 -1475 -2994 -1189 -4650
164 -954 580 -1881 1177 -2625 157 -195 479 -544 485 -526 2 6 -20 50 -49 98
-389 646 -624 1500 -658 2383 -8 212 2 626 19 785 6 55 15 141 20 190 6 50 14
113 20 140 5 28 17 93 25 145 24 146 81 396 131 568 199 686 525 1268 931
1662 142 139 192 180 328 271 148 99 281 167 297 151 7 -7 26 -12 42 -12 36
-1 -28 86 746 -1010 200 -283 395 -560 435 -615 39 -55 94 -134 123 -175 29
-41 78 -111 109 -155 31 -44 95 -134 141 -200 47 -66 101 -142 120 -170 41
-58 839 -1187 887 -1255 17 -25 72 -101 120 -170 49 -69 104 -148 124 -176 20
-28 81 -114 136 -192 55 -78 105 -141 112 -140 6 2 58 68 114 148 56 80 141
199 187 265 47 66 100 140 117 165 17 25 70 99 117 165 109 156 418 593 571
810 66 94 139 196 161 227 23 32 56 79 74 105 28 40 139 198 223 316 11 15 73
103 138 195 64 92 133 190 152 217 20 28 74 104 121 170 46 66 255 361 463
655 208 294 394 558 414 586 197 278 201 281 312 228 206 -99 398 -243 599
-450 573 -588 945 -1480 1070 -2564 44 -385 42 -921 -5 -1330 -83 -711 -307
-1409 -620 -1928 -31 -52 -55 -98 -53 -104 4 -11 191 184 330 342 913 1044
1418 2402 1418 3815 0 903 -199 1763 -595 2570 -291 594 -630 1069 -1103 1549
-997 1010 -2304 1618 -3732 1736 -131 11 -635 21 -730 14z"/>
</g>
</svg>
